<svg id="Layer_1" data-name="Layer 1" xmlns="http://www.w3.org/2000/svg" viewBox="0 0 300 300"><defs><style>.cls-1{fill:#fff;}.cls-2{fill:none;stroke:#000;stroke-miterlimit:10;stroke-width:4px;}</style></defs><title>ac</title><rect class="cls-1" width="300" height="300"/><g id="bb227bb8-b54d-49e3-9755-78ed58789195"><path d="M87.35,160.69c8.28,1.9,17.42,4.49,26,6.13,4.23,31.65,22.25,51.83,47.61,51.83,16.64,0,23.45-7.07,23.45-12.33,0-3.89-4.22-6.56-10.69-6.56C172.12,208.38,167,212,158.58,212c-24.49,0-31.48-7.33-32.68-43.81,11.21,0,19.83-3.37,22.16-15.61l-1.73-1.47c-2.15,6.21-10.17,8.28-20.52,8.54-.09-1.38-.09-2.85-.09-4.31,0-12.34,1.81-26.13,1.81-38.64,0-16.38-3.19-30.36-18.11-35.36a11.75,11.75,0,0,1,.18,2.59c0,8.71-4.32,22.94-5.95,24.58a7.7,7.7,0,0,1,2.58,2.67c-5.6,8.88-12.5,28.2-20.61,45.19a122.65,122.65,0,0,0-13.11-.86C52.76,155.52,40,163,40,179.41c0,8.36,6.47,14,16.21,14C68.11,193.38,78.89,177.94,87.35,160.69ZM83.9,160c-6.73,12.94-16.39,28.12-26.65,28.12-7.76,0-12.94-4.14-12.94-10.44,0-13.11,11.39-19.23,27.69-19.23A59.29,59.29,0,0,1,83.9,160Zm5.43-3.27C97,140.08,103.21,122.32,107.79,114c3.62,8.28,4.65,23.46,4.65,38.2q0,3.49.26,7C105,158.62,96.92,157.5,89.33,156.73Zm161.27,7.5-2-1.81c-11.56,15.44-26.31,23-46.92,23-14,0-21.56-9.05-21.56-25.95,0-38.81,15.87-64.77,39.59-64.77,22.76,0,26.56,10.26,28.11,27.25,7.24,0,12.16-3.88,12.16-9.74,0-15.27-25.79-20.44-39.76-20.44-35.18,0-58.64,24.32-58.64,60.88,0,22.77,15.78,38,39.5,38C222.4,190.71,238.27,180.7,250.6,164.23Z"/></g><ellipse class="cls-2" cx="153.56" cy="150" rx="128.77" ry="124.89"/></svg>