<svg id="Layer_1" data-name="Layer 1" xmlns="http://www.w3.org/2000/svg" viewBox="0 0 45.18 45.18"><defs><style>.cls-1{fill:none;stroke:#000;stroke-miterlimit:10;stroke-width:2px;}</style></defs><title>ac-logo-2</title><g id="_5dbed4b2-1b39-48ef-97ce-d35a370baef2" data-name=" 5dbed4b2-1b39-48ef-97ce-d35a370baef2"><path d="M12,14.06h0a2.34,2.34,0,0,1,.26-.43h0a6.61,6.61,0,0,1,.47-.58h0a3.86,3.86,0,0,1,.5-.49h0c.17-.16.3-.21.39-.17h0a1.91,1.91,0,0,1,1.13-.7h0a.25.25,0,0,1,.17.19h0a2.19,2.19,0,0,1-.17.55h0a3.72,3.72,0,0,1-.27.48h0V13h0a4.14,4.14,0,0,0-.06.7h0a3.68,3.68,0,0,1-.06.66h0a1.83,1.83,0,0,1,.34-.7h0a4.53,4.53,0,0,1,.54-.62h0a2,2,0,0,1,.59-.39h0a.59.59,0,0,1,.52,0h0a2.38,2.38,0,0,1,.3.47h0q.23.44.48,1.05h0c.19.4.38.82.58,1.26h0c.2.43.36.8.5,1.13h0c.16.33.31.66.45,1h0l1.74,3.59h0c.57,1.18,1.19,2.35,1.84,3.5h0c.2.35.44.75.71,1.2h0c.26.45.53.92.82,1.4h0q.42.72.81,1.44h0a9.82,9.82,0,0,1,.6,1.27h0l.08.11-.08.08h0a2.66,2.66,0,0,1-.26.6h0a3.25,3.25,0,0,1-.5.61h0a2.18,2.18,0,0,1-.54.42h0a.32.32,0,0,1-.39,0h0L23,31.21h0c-.15-.18-.29-.36-.43-.56h0a1.47,1.47,0,0,1-.52.25h0l-.13.14h0a1,1,0,0,1-.15-.2h0a1.09,1.09,0,0,1-.46-.33h0a5.59,5.59,0,0,1-.45-.52h0c-.14-.18-.27-.36-.39-.55h0c-.12-.2-.23-.36-.32-.5h0c-.53-.75-1.06-1.52-1.58-2.29h0c-.5-.78-1-1.58-1.46-2.39h0a8.91,8.91,0,0,1-1,.62h0l-.94.53h0c-.31.16-.59.3-.84.41h0l-.61.27h0l1-1.71h0c-.53.27-1.06.57-1.58.9h0c-.52.32-1,.62-1.54.89h0l-.3,1.55h0c-.09.5-.17,1-.26,1.5h0c-.09.51-.16,1-.22,1.4h0a5,5,0,0,1-.36,1.2h0l-.17.35h0c-.07.13-.14.25-.22.37h0l-.25.27h0c-.12.13-.24.25-.37.37h0a1.34,1.34,0,0,1-.37.25h0a.27.27,0,0,1-.31-.09h0a9.55,9.55,0,0,1,0-1.31h0a9.45,9.45,0,0,1,.18-1.3h0a2.41,2.41,0,0,1-1,1h0l-.24.1h0a.22.22,0,0,1-.26-.08h0a1.17,1.17,0,0,1-.06-.64h0a8.31,8.31,0,0,1,.15-1h0c.08-.39.18-.79.3-1.22h0c.12-.43.24-.82.37-1.2h0l.33-1h0c.09-.27.14-.43.17-.5h0a1.34,1.34,0,0,1,.17-.47h0L9,25.24H9A1,1,0,0,0,9.11,25h0a.89.89,0,0,1,.07-.28h0c.35-1.58.72-3.17,1.12-4.77h0c.38-1.59.83-3.16,1.33-4.72h0a.85.85,0,0,0,.09-.22h0l.09-.21h0a1.37,1.37,0,0,1,.13-.35h0A.57.57,0,0,1,12,14.06Zm3,1h0a25.08,25.08,0,0,0-1.64,4.35h0c-.42,1.47-.82,2.95-1.21,4.45h0a9.2,9.2,0,0,1,1.47-.74h0c.52-.22,1.05-.44,1.6-.64h0l.35-.12h0a1.32,1.32,0,0,1,.39-.15h0a.12.12,0,0,1,0-.1h0l-.47-.87h0a10.34,10.34,0,0,1-.48-1h0a7.36,7.36,0,0,1-.34-1h0a2.8,2.8,0,0,1,0-1h0c.06-.13.15-.3.26-.49h0a2.73,2.73,0,0,1,.37-.52h0l-.15-.49h0a2.55,2.55,0,0,0-.11-.52h0a1.54,1.54,0,0,1,.19-.81h0Zm21.9-2.65.41.5h0c.09-.18.18-.35.28-.52h0a2.35,2.35,0,0,1,.36-.47h0v.16h0a1,1,0,0,0-.1.39h0a3.05,3.05,0,0,0,0,.74h0v.73h0A13.82,13.82,0,0,0,38,15.48h0c.08.5.14,1,.19,1.49h0a2.2,2.2,0,0,1-.25.54h0a5,5,0,0,1-.48.66h0a3.15,3.15,0,0,1-.54.49h0a.36.36,0,0,1-.46,0h0A6.34,6.34,0,0,0,35,16.58h0a6,6,0,0,0-2.12-1.17h0l-.8.84h0l-.09-.2h0a1,1,0,0,0-.36.1h0a4.71,4.71,0,0,0-1.26,1.79h0a8,8,0,0,0-.54,2.15h0a15.36,15.36,0,0,0,0,2.35h0a17.71,17.71,0,0,0,.21,2.26h0a2.86,2.86,0,0,1,.06.58h0a2.29,2.29,0,0,0,.05.52h0a3.46,3.46,0,0,0,.26.7h0a4.55,4.55,0,0,1,.3.72h0v.08h0a1.32,1.32,0,0,1-.13.48h0a5.63,5.63,0,0,0,2.65.57h0a6.58,6.58,0,0,0,2.92-.71h0a1.21,1.21,0,0,0,.54-.43h0c.18-.22.35-.45.52-.7h0l.45-.66h0a1,1,0,0,1,.33-.37h0q.09,0,0,.18h0a1.58,1.58,0,0,1-.2.36h0L39.16,25h0l-.13.33h0a1,1,0,0,1-.13.23h0a2.76,2.76,0,0,1-.28.39h0l-.15.21h0l-.15.18h0c0,.07-.13.18-.26.33h0c-.42.55-.85,1.08-1.3,1.57h0a5.12,5.12,0,0,1-1.53,1.21h0a8,8,0,0,1-2.49.76h0A7,7,0,0,1,30.16,30h0a5.93,5.93,0,0,1-2.27-1.17h0a4.73,4.73,0,0,1-1.48-2.33h0a10.32,10.32,0,0,1-.52-3.17h0a12.76,12.76,0,0,1,.27-3.26h0a11.86,11.86,0,0,1,1.15-3h0a9.78,9.78,0,0,1,1.86-2.47h0a4.6,4.6,0,0,1,1.62-1.06h0a4.93,4.93,0,0,1,1.78-.33h0a5.8,5.8,0,0,1,1.8.29h0a5.62,5.62,0,0,1,1.64.87h0a4.29,4.29,0,0,1,.24-1h0a3.13,3.13,0,0,1,.59-.93Zm2.38,12.47-.09.08h0C39.26,24.76,39.29,24.73,39.26,24.88Z"/></g><circle class="cls-1" cx="22.59" cy="22.59" r="21.59"/></svg>