<svg id="Layer_1" data-name="Layer 1" xmlns="http://www.w3.org/2000/svg" viewBox="0 0 45.18 45.18"><defs><style>.cls-1{fill:none;stroke:#000;stroke-miterlimit:10;stroke-width:2px;}</style></defs><title>ac-2</title><g id="_5dbed4b2-1b39-48ef-97ce-d35a370baef2" data-name="5dbed4b2-1b39-48ef-97ce-d35a370baef2"><path d="M36.82,27.65h0a2.68,2.68,0,0,1,.26-.43h0a6.28,6.28,0,0,1,.47-.58h0a4.55,4.55,0,0,1,.5-.49h0c.17-.16.3-.21.39-.17h0a1.88,1.88,0,0,1,1.13-.7h0a.24.24,0,0,1,.17.19h0a2.21,2.21,0,0,1-.17.55h0a4.53,4.53,0,0,1-.27.48h0v.08h0a4.14,4.14,0,0,0-.06.7h0a3.52,3.52,0,0,1-.06.66h0a1.82,1.82,0,0,1,.34-.7h0a4.53,4.53,0,0,1,.54-.62h0a2,2,0,0,1,.59-.39h0a.57.57,0,0,1,.52,0h0s.15.17.3.47h0q.22.43.48,1.05h0c.19.4.38.82.58,1.26h0c.2.43.36.8.5,1.13h0q.24.49.45,1h0l1.74,3.59h0c.57,1.18,1.19,2.35,1.84,3.5h0c.2.35.44.75.71,1.2h0c.26.45.53.92.82,1.4h0q.42.72.81,1.44h0A10.09,10.09,0,0,1,50,43.54h0l.08.11-.08.08h0a2.35,2.35,0,0,1-.26.6h0a3.4,3.4,0,0,1-.5.61h0a2.09,2.09,0,0,1-.54.42h0a.32.32,0,0,1-.39,0h0l-.48-.56h0c-.15-.18-.29-.36-.43-.56h0a1.48,1.48,0,0,1-.52.25h0l-.13.14h0a1,1,0,0,1-.15-.2h0a1.16,1.16,0,0,1-.46-.33h0a5.4,5.4,0,0,1-.45-.52h0c-.14-.18-.27-.36-.39-.55h0c-.12-.2-.23-.36-.32-.5h0c-.53-.75-1.06-1.52-1.58-2.29h0c-.5-.78-1-1.58-1.46-2.39h0c-.31.22-.64.43-1,.62h0L40,39h0c-.31.16-.59.3-.84.41h0l-.61.27h0l1-1.71h0c-.53.27-1.06.57-1.58.9h0c-.52.32-1,.62-1.54.89h0l-.3,1.55h0c-.09.5-.17,1-.26,1.5h0c-.09.51-.16,1-.22,1.4h0a4.73,4.73,0,0,1-.36,1.2h0v0h0l-.17.35h0a3.6,3.6,0,0,1-.22.37h0l-.25.27h0a4.3,4.3,0,0,1-.37.37h0a1.42,1.42,0,0,1-.37.25h0a.27.27,0,0,1-.31-.09h0a9.54,9.54,0,0,1,0-1.31h0a9.9,9.9,0,0,1,.18-1.3h0a2.43,2.43,0,0,1-1,1h0l-.24.1h0a.22.22,0,0,1-.26-.08h0a1.13,1.13,0,0,1-.06-.64h0a7.31,7.31,0,0,1,.15-1h0c.08-.39.18-.79.3-1.22h0c.12-.43.24-.82.37-1.2h0q.18-.55.33-1h0c.09-.27.14-.43.17-.5h0c0-.15.1-.31.17-.47h0l.16-.48h0a1,1,0,0,0,.08-.29h0a1,1,0,0,1,.07-.28h0c.35-1.58.72-3.17,1.12-4.77h0c.38-1.59.83-3.16,1.33-4.72h0l0,0h0a1.28,1.28,0,0,0,.09-.22h0l.09-.21h0c0-.11.09-.23.13-.35h0C36.74,27.88,36.79,27.76,36.82,27.65Zm3,1h0A25.29,25.29,0,0,0,38.18,33h0c-.42,1.47-.82,2.95-1.21,4.45h0a9.2,9.2,0,0,1,1.47-.74h0c.52-.22,1.05-.44,1.6-.64h0l.35-.12h0a1.76,1.76,0,0,1,.39-.15h0a.14.14,0,0,1-.05-.1h0l-.47-.87h0c-.17-.31-.33-.64-.48-1h0a7.76,7.76,0,0,1-.34-1h0a2.66,2.66,0,0,1,0-1h0c.06-.13.15-.3.26-.49h0a2.86,2.86,0,0,1,.37-.52h0l-.15-.49h0c0-.17-.07-.34-.11-.52h0A1.54,1.54,0,0,1,40,29h0ZM61.72,26l.41.5h0c.09-.18.18-.35.28-.52h0a2.81,2.81,0,0,1,.36-.47h0c0-.06,0,0,0,.16h0a1.1,1.1,0,0,0-.1.39h0a3.27,3.27,0,0,0,0,.74h0c0,.33,0,.58,0,.73h0c0,.52.09,1,.15,1.54h0c.08.5.14,1,.19,1.49h0a0,0,0,0,0,0,0h0l0,0h0s0,0,0,0h0a.08.08,0,0,1,0,0h0a2.31,2.31,0,0,1-.25.54h0a4.58,4.58,0,0,1-.48.66h0a3.37,3.37,0,0,1-.54.49h0a.36.36,0,0,1-.46,0h0v0h0a6.3,6.3,0,0,0-1.43-2.08h0A6,6,0,0,0,57.73,29h0l-.8.84h0a1.56,1.56,0,0,0-.09-.2h0s-.13,0-.36.1h0a4.72,4.72,0,0,0-1.26,1.79h0a7.71,7.71,0,0,0-.54,2.15h0a16.68,16.68,0,0,0,0,2.35h0c0,.79.12,1.55.21,2.26h0a2.93,2.93,0,0,1,.06.58h0a2.35,2.35,0,0,0,.05.52h0a3.46,3.46,0,0,0,.26.7h0a6,6,0,0,1,.3.72h0a.28.28,0,0,0,0,.08h0v0h0a1.39,1.39,0,0,1-.13.48h0a5.65,5.65,0,0,0,2.65.57h0A6.54,6.54,0,0,0,61,41.23h0a1.17,1.17,0,0,0,.54-.43h0c.18-.22.35-.45.52-.7h0l.45-.66h0a1,1,0,0,1,.33-.37h0q.09,0,0,.18h0a2,2,0,0,1-.2.36h0L64,38.55h0l-.13.33h0a.88.88,0,0,1-.13.23h0a3.47,3.47,0,0,1-.28.39h0l-.15.21h0l-.15.18h0c-.05.07-.13.18-.26.33h0c-.42.55-.85,1.08-1.3,1.57h0A5,5,0,0,1,60.07,43h0a8,8,0,0,1-2.49.76h0A7.17,7.17,0,0,1,55,43.58h0a5.79,5.79,0,0,1-2.27-1.17h0a4.77,4.77,0,0,1-1.48-2.33h0a10.27,10.27,0,0,1-.52-3.17h0A13.09,13.09,0,0,1,51,33.65h0a11.93,11.93,0,0,1,1.15-3h0a9.83,9.83,0,0,1,1.86-2.47h0a4.59,4.59,0,0,1,1.62-1.06h0a5,5,0,0,1,1.78-.33h0a5.84,5.84,0,0,1,1.8.29h0a5.63,5.63,0,0,1,1.64.87h0a4.37,4.37,0,0,1,.24-1h0a3.32,3.32,0,0,1,.59-.93ZM64.1,38.47l-.09.08h0c.09-.2.12-.23.09-.08Z" transform="translate(-24.84 -13.59)"/></g><circle class="cls-1" cx="22.59" cy="22.59" r="21.59"/></svg>