<svg height='100px' width='100px'  fill="#C3C3C3" xmlns="http://www.w3.org/2000/svg" viewBox="0 0 64 64" x="0px" y="0px"><rect x="14" y="6" width="2" height="2"></rect><rect x="18" y="6" width="2" height="2"></rect><rect x="22" y="6" width="2" height="2"></rect><path d="M3,62H34a1,1,0,0,0,.707-1.707l-31-31A1,1,0,0,0,2,30V61A1,1,0,0,0,3,62ZM4,32.414,31.586,60H4Z"></path><path d="M19.707,54.293l-10-10A1,1,0,0,0,8,45V55a1,1,0,0,0,1,1H19a1,1,0,0,0,.707-1.707ZM10,54V47.414L16.586,54Z"></path><path d="M60.878,10.536a3.828,3.828,0,1,0-5.414-5.414l-1.5,1.5A4.991,4.991,0,0,0,49,2H15a5.006,5.006,0,0,0-5,5V33h2V7a3,3,0,0,1,3-3H49a3,3,0,0,1,3,3V8.586L42.586,18h-7.35A10.995,10.995,0,1,0,24,32.95V37a1,1,0,0,0,1,1H47a1,1,0,0,0,1-1V23.414l4-4V40H29a1,1,0,0,0-1,1v8a1,1,0,0,0,1,1H52v1a3,3,0,0,1-3,3H33v2H49a5.006,5.006,0,0,0,5-5V50h7a1,1,0,0,0,1-1V41a1,1,0,0,0-1-1H54V17.414Zm-4-4a1.829,1.829,0,1,1,2.586,2.586L59,9.586,56.414,7ZM34,22a9.01,9.01,0,0,1-8,8.941V20h7.768A8.971,8.971,0,0,1,34,22ZM24,19V30.941A9,9,0,1,1,33.05,18H25A1,1,0,0,0,24,19ZM46,36H26V32.95A10.955,10.955,0,0,0,35.809,20h4.777l-2.293,2.293a.991.991,0,0,0-.273.511l-1,5A1,1,0,0,0,38,29a.932.932,0,0,0,.2-.02l5-1a.991.991,0,0,0,.511-.273L46,25.414ZM39.614,25.028l1.358,1.358-1.7.339ZM56,42v2h2V42h2v6H30V42h2v2h2V42h2v2h2V42h2v2h2V42h2v2h2V42h2v2h2V42h2v2h2V42ZM43,25.586,40.414,23,55,8.414,57.586,11Z"></path></svg>