<?xml version="1.0" standalone="no"?>
<!DOCTYPE svg PUBLIC "-//W3C//DTD SVG 20010904//EN"
 "http://www.w3.org/TR/2001/REC-SVG-20010904/DTD/svg10.dtd">
<svg version="1.0" xmlns="http://www.w3.org/2000/svg"
 width="1280.000000pt" height="853.000000pt" viewBox="0 0 1280.000000 853.000000"
 preserveAspectRatio="xMidYMid meet">
<metadata>
Created by potrace 1.15, written by Peter Selinger 2001-2017
</metadata>
<g transform="translate(0.000000,853.000000) scale(0.100000,-0.100000)"
fill="#000000" stroke="none">
<path d="M5837 8483 c-8 -27 -54 -195 -102 -375 -49 -181 -93 -328 -98 -328
-15 0 -505 123 -1117 280 -322 82 -590 150 -596 150 -7 0 -15 -12 -18 -27 -4
-16 -57 -212 -117 -436 -61 -225 -109 -410 -107 -412 2 -2 64 -17 138 -35 174
-40 421 -104 507 -131 190 -61 306 -162 349 -307 33 -110 25 -157 -120 -690
-74 -272 -136 -495 -138 -497 -2 -2 -55 -33 -118 -70 -112 -65 -116 -66 -142
-51 -30 19 -61 20 -89 6 -15 -9 -32 -4 -85 26 -63 35 -66 38 -60 67 20 98 -72
184 -173 162 -39 -8 -90 -59 -98 -96 l-5 -29 -1824 0 c-1615 0 -1824 -2 -1824
-15 0 -13 209 -15 1823 -15 l1822 -1 18 -38 c40 -86 140 -104 227 -40 23 17
140 -53 140 -84 0 -30 26 -66 56 -78 l25 -9 -3 -464 -3 -465 -23 -28 c-55 -69
-56 -72 -43 -108 11 -31 -1 -80 -149 -627 -89 -326 -172 -633 -185 -681 -53
-194 -156 -288 -318 -288 -70 0 -285 49 -619 139 l-108 30 -44 -94 -45 -94
-1285 0 c-1136 0 -1286 -2 -1286 -15 0 -13 148 -15 1275 -15 808 0 1275 -4
1275 -10 0 -5 -72 -165 -160 -355 -88 -191 -160 -350 -160 -354 0 -5 100 -34
223 -65 820 -206 1484 -379 1492 -388 2 -2 -28 -115 -65 -253 -251 -924 -302
-1117 -298 -1121 3 -2 137 -38 299 -79 294 -75 294 -75 429 -75 l135 0 174
643 c95 353 175 645 177 648 2 4 61 -9 131 -28 71 -19 222 -58 337 -88 114
-30 211 -56 214 -59 4 -5 -55 -228 -269 -1014 l-27 -102 456 2 456 3 103 379
c56 209 105 382 108 384 3 3 5 -169 5 -381 0 -337 2 -387 15 -387 13 0 15 57
15 454 0 250 3 457 8 459 4 2 61 -6 128 -19 184 -35 450 -72 639 -89 223 -21
580 -21 754 -1 804 95 1298 515 1565 1329 58 176 91 353 109 572 l2 30 1628 3
c1437 2 1627 4 1627 17 0 13 -189 15 -1630 15 l-1630 0 0 36 c0 72 -32 247
-61 337 -110 338 -367 613 -798 855 l-55 30 45 11 c437 111 733 338 908 696
126 257 191 557 178 825 l-5 120 1524 0 c1347 0 1524 2 1524 15 0 13 -179 15
-1527 17 l-1526 3 -22 90 c-62 251 -188 461 -398 662 -255 244 -658 473 -1145
649 -70 25 -130 49 -134 53 -6 5 331 1276 357 1349 4 10 -88 12 -452 10 l-457
-3 -22 -80 c-12 -44 -79 -291 -149 -550 -70 -258 -128 -471 -129 -472 -1 -1
-52 11 -114 27 -62 15 -214 52 -338 81 -125 29 -228 58 -230 64 -4 9 205 798
242 918 5 16 -21 17 -450 17 l-455 0 -14 -47z m457 -1879 c14 -6 16 -76 16
-690 l0 -684 -33 -14 c-54 -22 -87 -70 -87 -124 0 -62 29 -109 80 -130 l40
-17 0 -61 0 -61 -125 31 -125 30 0 268 c0 232 2 268 15 268 50 0 72 85 33 127
-26 27 -59 29 -99 6 -15 -9 -30 -15 -33 -12 -2 2 61 243 140 534 79 292 144
531 144 533 0 4 18 2 34 -4z m218 -50 l153 -35 273 -157 c217 -125 277 -164
292 -190 17 -28 20 -52 20 -166 l0 -133 -289 -166 c-159 -92 -294 -167 -299
-167 -5 0 -15 7 -22 15 -18 21 -63 19 -94 -6 -19 -15 -26 -30 -26 -55 0 -36
28 -74 55 -74 13 0 15 -43 15 -325 l0 -325 -27 1 c-16 0 -71 10 -123 22 l-95
22 -2 65 -3 65 42 20 c56 27 81 63 81 117 0 63 -26 106 -79 129 l-44 20 0 679
c0 438 3 680 10 680 5 0 78 -16 162 -36z m523 -139 c248 -76 464 -173 635
-285 98 -64 259 -217 294 -279 l18 -33 -49 29 c-27 15 -104 60 -171 98 -109
62 -122 73 -117 93 6 26 -17 77 -40 86 -57 21 -119 -20 -113 -76 3 -31 -1 -35
-87 -85 -49 -29 -93 -53 -97 -53 -5 0 -8 48 -8 108 l0 107 30 17 c60 34 58
104 -3 138 -25 14 -30 13 -65 -5 l-37 -20 -170 98 c-93 55 -172 101 -175 104
-6 7 10 2 155 -42z m780 -558 c206 -120 210 -124 227 -168 37 -102 38 -309 1
-420 l-18 -54 -413 -238 -413 -238 -30 22 c-61 43 -144 34 -193 -20 -22 -24
-44 -26 -169 -10 -70 9 -86 14 -75 24 7 6 121 74 252 149 238 137 240 138 267
122 51 -30 98 -15 119 38 13 36 -5 76 -43 94 l-27 13 0 337 0 337 118 67 c84
49 127 67 152 67 26 0 87 -31 245 -122z m-565 -380 l0 -333 -27 -31 c-23 -25
-558 -343 -577 -343 -4 0 -6 146 -6 325 0 306 1 326 20 357 15 26 82 69 297
195 153 89 281 162 286 162 4 1 7 -149 7 -332z m-2850 120 c0 -2 -6 -26 -14
-53 -8 -27 -21 -75 -30 -106 l-16 -56 -75 41 c-41 23 -75 47 -74 52 0 6 43 35
97 66 91 53 112 64 112 56z m1589 -143 c20 -33 21 -49 21 -296 0 -204 -3 -259
-12 -256 -7 3 -53 15 -101 28 -58 15 -86 27 -83 35 2 7 35 125 71 261 65 241
72 264 80 264 1 0 12 -16 24 -36z m-1736 -63 c42 -25 77 -47 77 -50 0 -3 -38
-143 -85 -311 l-84 -305 0 358 c-1 197 3 357 7 355 5 -1 43 -23 85 -47z m3718
-298 c-80 -151 -229 -264 -427 -326 -83 -26 -294 -61 -304 -50 -3 3 0 7 5 10
6 2 177 100 380 217 204 118 372 213 373 211 2 -2 -10 -30 -27 -62z m-2179
-1020 c93 -21 168 -41 168 -44 0 -3 -61 -41 -136 -84 -113 -65 -139 -76 -153
-66 -34 25 -86 43 -113 39 -22 -4 -27 -1 -24 11 3 9 13 47 22 84 16 67 34 97
57 97 7 0 87 -17 179 -37z m218 -211 l0 -138 -292 -168 c-230 -133 -295 -166
-307 -158 -9 5 -15 14 -15 19 3 18 67 258 70 262 2 2 13 -4 25 -15 16 -14 36
-19 79 -19 48 0 63 4 85 25 42 39 58 78 52 124 l-6 41 142 82 c78 45 148 82
155 82 9 1 12 -33 12 -137z m168 119 c41 -11 75 -21 76 -23 1 -2 1 -24 -2 -50
l-4 -48 -88 -50 c-48 -27 -90 -50 -94 -50 -3 0 -6 49 -6 108 0 103 1 110 23
120 12 6 22 11 22 11 0 0 33 -8 73 -18z m367 -105 c39 -12 40 -13 43 -64 2
-29 1 -52 -3 -52 -3 0 -46 23 -95 51 -80 46 -90 54 -90 80 l0 28 53 -16 c28
-8 70 -21 92 -27z m137 -45 c13 -5 78 -31 145 -57 86 -33 127 -54 138 -71 25
-38 75 -63 125 -63 38 0 62 -10 145 -61 391 -237 567 -513 535 -835 -9 -86
-36 -202 -52 -221 -20 -25 -119 -73 -149 -73 -20 0 -73 24 -150 68 l-119 67 0
338 0 337 23 9 c57 22 69 88 23 128 -32 27 -58 29 -95 7 -27 -16 -29 -15 -319
152 l-292 169 0 57 c0 60 4 64 42 49z m-372 -173 l0 -173 -40 -17 c-107 -45
-107 -205 0 -253 l40 -18 0 -589 0 -589 -32 5 c-437 73 -722 136 -793 176 -76
44 -85 67 -85 224 l0 131 277 160 c339 197 309 182 331 162 45 -41 122 -3 122
60 0 35 -29 73 -55 73 -13 0 -15 45 -15 343 l0 342 118 67 c64 37 120 68 125
68 4 0 7 -78 7 -172z m162 105 l118 -68 0 -342 c0 -294 -2 -343 -15 -343 -24
0 -55 -42 -55 -74 0 -60 85 -103 120 -61 7 8 17 15 22 15 5 0 139 -75 298
-167 l290 -167 0 -134 c0 -116 -3 -139 -19 -166 -14 -22 -75 -63 -218 -145
l-198 -114 -130 1 c-131 1 -266 9 -317 18 l-28 6 0 586 0 587 42 20 c52 25 81
72 81 132 0 55 -25 91 -81 118 l-41 20 -1 173 c0 94 3 172 7 172 4 0 60 -30
125 -67z m-462 -427 c0 -308 -1 -327 -20 -359 -16 -28 -74 -65 -300 -196 -154
-88 -282 -161 -285 -161 -3 0 -5 146 -5 325 0 306 1 326 20 357 15 26 82 69
297 195 153 89 281 162 286 162 4 1 7 -145 7 -323z m917 164 c200 -115 284
-169 301 -192 22 -32 22 -36 22 -361 0 -184 -4 -327 -9 -325 -5 2 -133 75
-285 162 -222 128 -280 166 -296 193 -19 32 -20 53 -20 359 0 178 2 324 5 324
2 0 129 -72 282 -160z m-1577 -592 l0 -323 -101 -58 c-55 -32 -103 -57 -105
-54 -5 5 196 757 203 757 1 0 3 -145 3 -322z m0 -498 c0 -108 0 -111 -25 -120
-13 -5 -30 -18 -36 -28 -12 -19 -14 -19 -103 5 -90 24 -113 33 -83 33 25 0 58
50 55 84 -3 28 3 33 87 82 50 29 93 53 98 54 4 0 7 -50 7 -110z m2055 57 c84
-50 90 -55 87 -83 -4 -43 30 -84 71 -84 l32 -1 -60 -55 c-73 -68 -146 -113
-247 -153 -79 -32 -206 -65 -293 -76 -61 -8 -60 -7 108 89 l118 68 33 -16 c43
-20 56 -20 84 0 51 36 47 101 -8 132 l-30 17 0 108 c0 59 3 107 8 107 4 0 48
-24 97 -53z m265 -56 c-15 -29 -30 -35 -30 -12 0 17 11 28 33 30 4 1 3 -8 -3
-18z"/>
</g>
</svg>
